<svg width="24" height="24" viewBox="0 0 24 24" fill="none" xmlns="http://www.w3.org/2000/svg">
	<g clip-path="url(#clip80)">
	<path d="M16.4447 2.84105C18.8995 5.29578 18.8995 9.27567 16.4447 11.7304C13.99 14.1851 10.0101 14.1851 7.5554 11.7304C5.10067 9.27565 5.10067 5.29576 7.5554 2.84105C10.0101 0.386318 13.99 0.386318 16.4447 2.84105" fill="black"></path>
	<path d="M16.4447 2.84105C18.8995 5.29578 18.8995 9.27567 16.4447 11.7304C13.99 14.1851 10.0101 14.1851 7.5554 11.7304C5.10067 9.27565 5.10067 5.29576 7.5554 2.84105C10.0101 0.386318 13.99 0.386318 16.4447 2.84105" stroke="black" stroke-linecap="round" stroke-linejoin="round"></path>
	<path d="M22.9884 22.4995C23.0013 22.7753 22.7761 23 22.5 23H1.5C1.22386 23 0.998697 22.7753 1.01165 22.4995C1.27979 16.787 6.14406 13.5715 12 13.5715C17.8575 13.5715 22.7203 16.787 22.9884 22.4995Z" fill="black" stroke="black" stroke-linecap="round" stroke-linejoin="round"></path>
	</g>
	<defs>
	<clipPath id="clip80">
	<rect width="24" height="24" fill="white"></rect>
	</clipPath>
	</defs>
	</svg>