<svg width="21" height="17" viewBox="0 0 21 17" xmlns="http://www.w3.org/2000/svg"><title>twitter</title><path d="M20.741 2.08c-.725.323-1.337.334-1.984.014.835-.5.874-.853 1.176-1.799a8.111 8.111 0 0 1-2.572.984 4.05 4.05 0 0 0-6.9 3.694A11.492 11.492 0 0 1 2.115.74a4.049 4.049 0 0 0 1.253 5.406 4.034 4.034 0 0 1-1.833-.505v.05a4.052 4.052 0 0 0 3.248 3.971 4.077 4.077 0 0 1-1.83.07 4.056 4.056 0 0 0 3.783 2.812 8.143 8.143 0 0 1-5.995 1.676A11.465 11.465 0 0 0 6.95 16.04c7.447 0 11.52-6.17 11.52-11.521 0-.177-.003-.35-.01-.524.79-.57 1.74-1.102 2.282-1.915z" fill="#ffffff"></path></svg>