<svg width="20" height="19" viewBox="0 0 20 19" xmlns="http://www.w3.org/2000/svg"><title>linkedin</title><path d="M4.781 18.921H.026V6.556H4.78v12.365zM2.395 4.654h-.029C.93 4.654 0 3.53 0 2.294 0 1.03.959 0 2.423 0c1.465 0 2.366 1.063 2.396 2.327-.001 1.236-.93 2.327-2.424 2.327zm10.947 5.707a1.902 1.902 0 0 0-1.902 1.902v6.658H6.684s.056-11.414 0-12.365h4.756V7.97s1.472-1.373 3.745-1.373c2.818 0 4.815 2.04 4.815 5.996v6.33h-4.756v-6.659c0-1.05-.851-1.902-1.902-1.902z" fill="#ffffff"></path></svg>