<svg width="22" height="22" viewBox="0 0 22 22" xmlns="http://www.w3.org/2000/svg"><title>instagram</title><g transform="translate(1 1)" fill="none" fill-rule="evenodd"><rect fill="#ffffff" width="19.167" height="19.167" rx="3"></rect><path d="M19.583 16.25a3.333 3.333 0 0 1-3.333 3.333H3.75A3.333 3.333 0 0 1 .417 16.25V3.75A3.333 3.333 0 0 1 3.75.417h12.5a3.333 3.333 0 0 1 3.333 3.333v12.5zM.417 7.083H6.42m7.137 0h6.045" stroke="#118acb" stroke-linejoin="round"></path><circle stroke="#118acb" stroke-linejoin="round" cx="10" cy="10" r="4.583"></circle><path stroke="#118acb" stroke-linejoin="round" d="M15.417 2.917H17.917V5.417H15.417z"></path><path d="M2.083.833v6.25M3.75.417v6.666M5.417.417v6.666" stroke="#118acb" stroke-linejoin="round"></path></g></svg>