<svg data-aos="fade" data-aos-duration="1000" data-aos-delay="600" class="arrow aos-init aos-animate" width="43" height="18" xmlns="http://www.w3.org/2000/svg"><g transform="translate(1 1)" stroke="#000" stroke-width=".25"><path d="M33 16c-.4 0-.667-.133-.933-.4a1.289 1.289 0 0 1 0-1.867l6.666-6.666a1.289 1.289 0 0 1 1.867 0 1.289 1.289 0 0 1 0 1.866L33.933 15.6c-.266.267-.533.4-.933.4z"></path><path d="M39.667 9.333c-.4 0-.667-.133-.934-.4l-6.666-6.666a1.289 1.289 0 0 1 0-1.867 1.289 1.289 0 0 1 1.866 0L40.6 7.067a1.289 1.289 0 0 1 0 1.866c-.267.267-.533.4-.933.4z"></path><path d="M35.889 9.333H2.11C.844 9.333 0 8.8 0 8c0-.8.844-1.333 2.111-1.333H35.89C37.156 6.667 38 7.2 38 8c0 .8-.844 1.333-2.111 1.333z"></path></g></svg>