<svg fill="none" height="24" viewBox="0 0 24 24" width="24" xmlns="http://www.w3.org/2000/svg"><g fill="#000" stroke="#000"><path d="m.875 10c0 5.069 4.05596 9.125 9.125 9.125 5.069 0 9.125-4.056 9.125-9.125 0-5.06904-4.056-9.125-9.125-9.125-5.06904 0-9.125 4.05596-9.125 9.125zm2.25 0c0-3.83096 3.04404-6.875 6.875-6.875 3.831 0 6.875 3.04404 6.875 6.875 0 3.831-3.044 6.875-6.875 6.875-3.83096 0-6.875-3.044-6.875-6.875z" stroke-width=".25"></path><path d="m21.4632 22.9368c.0948.0947.1995.1757.3253.2317.1268.0563.2623.0815.4115.0815s.2847-.0252.4115-.0815c.1258-.056.2305-.137.3253-.2317.4176-.4177.4176-1.0559 0-1.4736l-6.4-6.4c-.4177-.4176-1.0559-.4176-1.4736 0-.4176.4177-.4176 1.0559 0 1.4736z" stroke-width=".5"></path></g></svg>