<?xml version="1.0" encoding="UTF-8"?>
<!DOCTYPE svg PUBLIC "-//W3C//DTD SVG 1.1//EN" "http://www.w3.org/Graphics/SVG/1.1/DTD/svg11.dtd">
<!-- Creator: CorelDRAW 2019 (64-Bit) -->
<svg xmlns="http://www.w3.org/2000/svg" xml:space="preserve" width="183.771mm" height="183.767mm" version="1.1" style="shape-rendering:geometricPrecision; text-rendering:geometricPrecision; image-rendering:optimizeQuality; fill-rule:evenodd; clip-rule:evenodd"
viewBox="0 0 183.7714 183.7674"
 xmlns:xlink="http://www.w3.org/1999/xlink"
 xmlns:xodm="http://www.corel.com/coreldraw/odm/2003">
 <defs>
  <style type="text/css">
   <![CDATA[
    .fil2 {fill:#E63D24}
    .fil3 {fill:#3F3185}
    .fil1 {fill:black}
    .fil0 {fill:white}
   ]]>
  </style>
 </defs>
 <g id="Layer_x0020_1">
  <metadata id="CorelCorpID_0Corel-Layer"/>
  <g id="_993268624">
   <path class="fil0" d="M182.046 91.8842c0,23.912 -9.4987,46.8446 -26.4069,63.7531 -16.9083,16.9085 -39.8414,26.4077 -63.7534,26.4077 -23.912,0 -46.8451,-9.4992 -63.7536,-26.4077 -16.9081,-16.9085 -26.4071,-39.8411 -26.4071,-63.7531 0,-23.9122 9.499,-46.8449 26.4071,-63.7532 16.9085,-16.9082 39.8416,-26.4082 63.7536,-26.4082 23.912,0 46.8451,9.5 63.7534,26.4082 16.9082,16.9083 26.4069,39.841 26.4069,63.7532z"/>
   <path class="fil1" d="M91.8835 0c-50.7254,0 -91.8835,41.1584 -91.8835,91.8837 0,50.7255 41.1581,91.8836 91.8835,91.8836 50.7255,0 91.8879,-41.1581 91.8879,-91.8836 0,-50.7253 -41.1623,-91.8837 -91.8879,-91.8837zm0 3.4444l0 0c48.8635,0 88.4395,39.576 88.4395,88.4393 0,48.863 -39.576,88.4389 -88.4395,88.4389 -48.8629,0 -88.4349,-39.5759 -88.4349,-88.4389 0,-48.8633 39.572,-88.4393 88.4349,-88.4393z"/>
   <path class="fil1" d="M136.3775 73.9497c-10.4818,0 -15.97,4.4392 -15.97,11.2435 0,2.1805 1.3525,5.2882 3.6197,6.7567 3.9708,2.5708 7.2915,2.9551 11.8513,4.0648 2.6201,0.6377 5.462,1.3755 5.462,3.0465 0,1.3937 -1.4153,2.4178 -5.134,2.4178 -7.3611,0 -8.8124,-3.8795 -8.8124,-3.8795l-9.4289 3.4657c1.9986,6.3515 11.7672,8.528 18.2413,8.528 6.9208,0 10.919,-1.4775 13.4613,-3.9013 2.8088,-2.678 3.0807,-5.2713 3.0807,-7.7255 0,-2.18 -0.8461,-5.0573 -5.0194,-7.4665 -3.036,-1.7529 -9.1744,-2.8257 -11.8506,-3.4009 -1.0031,-0.2153 -4.2421,-0.6865 -4.2421,-2.5948 0,-1.4247 2.0241,-2.2014 4.7411,-2.2014 5.369,0 6.2264,3.6282 6.2264,3.6282l9.4695 -3.4802c-1.483,-6.6436 -9.2588,-8.5011 -15.6959,-8.5011zm31.2909 0.1616l0 0 -11.3594 4.176 -0.0051 0 0 29.9555 11.3658 0 -0.0013 -34.1315zm-151.9543 0.6305l0 0 0 33.5 11.3625 0 0 -6.2439c3.9831,-1.3584 8.7399,-3.003 12.8097,-4.8559 7.9423,-3.6159 8.2768,-8.1397 8.2768,-11.9045 0,-4.6655 -3.4771,-10.4957 -13.1587,-10.4957l-19.2903 0zm35.7019 0l0 0 0 33.501 29.5352 0 0 -8.2555 -18.1721 0 0 -4.4347 14.2564 0 0 -8.2332 -14.2564 0 0 -4.3435 17.8506 0 0 -8.2341 -29.2137 0zm34.4596 0l0 0 19.2902 0c9.6822,0 13.1589,5.8302 13.1589,10.4957 0,3.7648 -0.3345,8.2886 -8.2769,11.9045 -4.0698,1.8529 -8.8267,3.4975 -12.8098,4.8559l0 6.2439 -11.3624 0 0 -33.5zm-58.799 8.2341l0 0 5.6795 0c1.9034,0 3.5032,1.5492 3.5032,3.5199 0,2.3495 -0.9013,3.5967 -4.3228,5.0245l-4.8599 1.9296 0 -10.474zm70.1614 0l0 0 0 10.474 4.8605 -1.9296c3.4209,-1.4278 4.3227,-2.675 4.3227,-5.0245 0,-1.9707 -1.5999,-3.5199 -3.5037,-3.5199l-5.6795 0z"/>
   <path class="fil2" d="M91.8856 9.5918c-16.055,0.0115 -31.7562,4.7194 -45.1695,13.543 -13.4135,8.8235 -23.9532,21.3774 -30.321,36.1153 0.2985,0.1061 16.3566,5.7872 32.5598,5.7872 25.3193,0 55.68,-10.35 88.3975,-10.35 16.5598,0 28.8176,4.1001 30.0708,4.5349 -6.3757,-14.7406 -16.9247,-27.2932 -30.3465,-36.1117 -13.422,-8.8197 -29.131,-13.5187 -45.1911,-13.5187z"/>
   <path class="fil3" d="M91.9319 174.2c16.0552,-0.012 31.7562,-4.7194 45.1704,-13.5431 13.4128,-8.8237 23.9528,-21.3772 30.321,-36.1157 -0.2985,-0.1062 -16.3568,-5.7872 -32.5606,-5.7872 -25.3193,0 -55.6795,10.3506 -88.3968,10.3506 -16.5607,0 -28.818,-4.1007 -30.0707,-4.535 6.3754,14.74 16.9239,27.2931 30.3459,36.1117 13.4223,8.8187 29.1309,13.5182 45.1908,13.5187z"/>
  </g>
 </g>
</svg>
